<svg xmlns="http://www.w3.org/2000/svg" viewBox="0 0 656 656" width="656" height="656"><path d="M328.5 11L335 15.5Q336.5 22 341.5 25L351.5 31L361.5 32L371.5 36L380.5 36L385.5 39L395.5 40L401.5 44L407.5 45L412.5 49L414.5 49L425 58.5L432 72.5Q430.9 78.6 433.5 81L444.5 73L457.5 72L458.5 73L472.5 73L478.5 77L481.5 77L489.5 81L493.5 85L502.5 89L507.5 94Q514.8 95.7 518.5 101L524 102Q522.8 105 526.5 104L536.5 107L550.5 107L553 108L554 110.5L554 126.5L562 147Q564.7 145.9 564 148.5L578 166.5L582.5 175L585 176.5L594 193.5L594 202.5Q597 206.5 596 214.5Q593 217.5 593 223.5L587 232.5L592.5 233L595.5 236L601.5 237L610 244.5L615 254.5L616 262.5L625 278.5L625 289.5L629 297.5L629 307L632 308.5L633 313.5Q640.3 319.2 644 328.5L644 333.5L636.5 346L633 348.5L633 351.5L629 355.5L629 363.5L626 368.5L625 375.5L626 377.5L622 385.5L621 396.5Q617 402.5 616 411.5L602.5 426L596.5 430L586 431.5L594 444.5L596 451.5L596 456.5L594 467.5L589 478.5L562 515.5L562 517.5L558 522.5L557 528.5L554 532.5L554 538.5L555 541.5L550.5 549L534.5 549Q532 554 523.5 553L518.5 557L514.5 557L510.5 561L494.5 568L465.5 586L457.5 586Q455.7 589.2 450.5 589L442.5 586L438.5 586L431 581L430 586.5L431 588.5L426 594.5L426 596.5L417.5 605L414 607.5Q414.8 609.8 412.5 609L399.5 615Q389.9 615.4 383.5 619L376.5 619L370.5 623L360.5 623L355.5 627L353.5 627L351.5 627L349.5 627L339 634.5L336.5 638Q334.3 637.3 335 639.5L331.5 644L325.5 645L323 639.5L315.5 632L307 627.5Q307.8 625.3 305.5 626L302.5 627L297.5 623L284.5 622L278.5 619L264.5 617L258.5 614L253.5 614L243 609Q244.3 606 240.5 607L232 599.5L229 594.5L227 584.5L225.5 583L219.5 586L213.5 586Q210.9 589.9 203.5 589Q198.8 585.2 190.5 585L186.5 582L183.5 582L178.5 578L175.5 578L172.5 575L164 572L162.5 569L159.5 569L155.5 565L145.5 561L133.5 553L127.5 553L118.5 549L106.5 549L105 547.5L104 545.5L104 530.5L101 527.5L100 522.5L84 498L80 495.5L79 491.5L75 487.5L69 475.5L66 472.5L63 457.5L63 451.5L66 439.5L72 431.5L62.5 430L52 424L42 409.5L40 400.5L37 396.5L37 388.5L33 381.5L33 372.5L29 364.5L28 355.5L24 347.5L13 333.5L13 330.5L17 326.5L19 320.5L25 313.5L25 310.5L29 304.5Q27.5 293.5 33 289.5L33 276.5L36 272.5L37 264.5Q42.2 258.7 44 249.5L49.5 243L52.5 241L56.5 237L60.5 237L67.5 233L71.5 234L72.5 232Q70.3 232.8 71 230.5Q61.6 220.9 63 200.5L65 190.5L69 186.5L70 182.5L79 167.5L85 161.5L89 153.5L95 146.5L95 143.5L100 136.5L101 128.5L105 120.5L105 108L111.5 107L116.5 108L130.5 105L133.5 102L139.5 101L141 99.5L142.5 97L158.5 87L162.5 86L167.5 81L184.5 73L204.5 72L205.5 73L213.5 73L223 79.5L223.5 81L227 72.5L228 65.5Q233.3 55.3 242.5 49Q248.7 48.2 251.5 44L256.5 44L264.5 40L269.5 40L280.5 36L290.5 36L294.5 33L307 31Q305.9 28.3 308.5 29Q315.7 27.2 319 21.5L325.5 12L328.5 11ZM328 36L326 39Q321 44 313 45L310 48L301 49L297 52L292 53L289 52L284 53L278 57L266 58L262 61L259 61L253 64L248 69L245 69L245 72L240 78L239 103L236 106Q231 107 230 104L228 101L212 89L193 89L181 95Q176 93 177 97L172 99L167 104L166 103L143 118L140 118L131 123L122 124L119 128L119 132Q115 136 115 144L101 168L98 169L94 178L91 181Q92 183 89 182L88 186Q89 188 87 187L80 200L80 217L94 235Q96 234 95 237L99 239Q101 241 100 247L95 250L89 248L71 250Q69 247 68 251Q65 250 66 253L63 255Q60 254 61 257L59 258L55 263L55 266L52 272L51 281L48 288L48 297L44 306L44 312Q40 315 39 323L33 331Q32 336 36 338Q35 340 38 339L45 359L48 363L48 372L52 383L52 388Q56 393 56 402L60 408L67 413L72 413L86 418L94 418L100 415L103 415L105 420L104 423L94 432Q95 434 93 433L81 447L80 450Q78 460 81 466L91 480L91 482L98 490Q97 492 100 491L111 510Q110 512 113 511L116 521L121 529L121 533L139 537L155 545Q157 544 156 547L161 548L166 553L169 553L179 560L184 561L188 565L192 565L195 568L205 570L216 569L221 566L229 555L234 552L238 552L240 558Q242 563 239 565L239 579L243 587L258 597L269 598L277 602L287 602L295 606L303 607L308 611L313 611Q314 615 320 615L328 623L337 615L357 606L362 605L364 606L372 602L384 601L389 598L396 598L409 592L415 585L415 581L419 578L419 562L417 557Q418 552 425 553L433 564L443 569L448 570L461 569L465 566L469 566L475 561L480 560L489 554L493 553L497 549L512 540L517 540L522 536L537 533Q540 532 538 526L549 504L554 499L554 497L559 490L566 483L575 469L579 459L579 451L569 437L562 430L559 427L555 425L554 423Q554 418 558 416L567 418L578 418L587 413Q592 414 595 411L603 399Q602 392 606 391L606 380L610 371L610 364L615 350L624 334L624 331L614 311L614 305L610 297L610 288L606 279L606 273L603 269L602 262L590 251L585 249L576 249L575 248L564 250L560 250L556 248L557 242Q571 231 579 216L578 212Q576 205 579 204L575 196L575 193L559 172L546 150Q547 147 544 148L542 140L538 133Q539 126 537 124L530 122L528 123L525 123L519 120L508 112L502 110L500 108L490 101Q487 102 488 99L467 89L452 89L451 90L448 89L441 95L438 95L432 101Q429 100 430 103L423 108L421 108L419 107L419 82L415 78Q416 72 413 71L406 64Q403 65 404 63Q403 60 398 61L391 57L383 57L376 53L371 52L369 53L361 52L355 48L353 49L348 48L345 45Q337 44 334 40L332 38Q331 35 328 36Z" fill="black"/></svg>