<svg width="210" height="261" viewBox="0 0 210 261" fill="none" xmlns="http://www.w3.org/2000/svg">
<path d="M102.5 1.06179L126.001 56.5525L79.0027 57.0528L102.5 1.06179Z" fill="white"/>
<path d="M148.008 109.544L126.016 56.5501L178.514 56.553L148.008 109.544Z" fill="white"/>
<path d="M169.519 161.056L148.008 109.554L205.019 109.554L169.519 161.056Z" fill="white"/>
<path d="M149.52 189.055L169.516 161.055L181.02 189.055L149.52 189.055Z" fill="white"/>
<path d="M55.5117 189.039L149.511 189.037L102.515 256.537L55.5117 189.039Z" fill="white"/>
<path d="M35.5039 160.047L55.5039 189.047L24.5015 189.055L35.5039 160.047Z" fill="white"/>
<path d="M56.9993 109.547L35.5034 160.048L1.6517e-06 109.547L56.9993 109.547Z" fill="white"/>
<path d="M79.0061 57.047L57.005 109.55L26.5052 56.5444L79.0061 57.047Z" fill="white"/>
</svg>
