<svg width="912" height="911" viewBox="0 0 912 911" fill="none" xmlns="http://www.w3.org/2000/svg">
<path d="M460.774 908.902L375.586 781.505L551.074 781.223L460.774 908.902Z" fill="white"/>
<path d="M269.346 781.923L307.488 689.242L375.398 781.869L269.346 781.923Z" fill="white"/>
<path d="M163.068 688.704L222.525 573.746L307.523 689.25L163.068 688.704Z" fill="white"/>
<path d="M174.707 220.124L299.531 220.328L225.525 318.326L174.707 220.124Z" fill="white"/>
<path d="M235.029 108.272L383.511 109.756L299.509 220.258L235.029 108.272Z" fill="white"/>
<path d="M462.991 3.79335L542.003 108.701L383.504 109.699L462.991 3.79335Z" fill="white"/>
<path d="M690.586 108.796L627.568 220.814L542.068 108.814L690.586 108.796Z" fill="white"/>
<path d="M751.085 220.275L701.586 317.273L627.573 220.772L751.085 220.275Z" fill="white"/>
<path d="M890.586 317.275L797.586 444.773L701.576 317.286L890.586 317.275Z" fill="white"/>
<path d="M703.564 573.195L797.6 444.653L896.084 573.725L703.564 573.195Z" fill="white"/>
<path d="M618.113 689.24L703.635 573.218L764.087 689.229L618.113 689.24Z" fill="white"/>
<path d="M551.096 781.237L618.084 689.252L657.586 781.229L551.096 781.237Z" fill="white"/>
<path d="M31.5111 573.236L128.46 444.668L222.525 573.736L31.5111 573.236Z" fill="white"/>
<path d="M30.9948 316.485L128.348 444.946L225.503 318.277L225.5 318.276L225.005 317.278L223.999 317.281L184.339 316.477L128.839 316.485L30.9948 316.485Z" fill="white"/>
</svg>
