<svg width="302" height="474" viewBox="0 0 302 474" fill="none" xmlns="http://www.w3.org/2000/svg">
<path d="M141.996 2.24307L190.497 99.749L93.995 99.749L141.996 2.24307Z" fill="white"/>
<path d="M93.9961 99.7657L65.9961 155.266L33.9961 99.7656L63.9961 99.7656L93.9961 99.7657Z" fill="white"/>
<path d="M65.9961 155.359L33.4961 221.266L5.49609 155.344L34.9961 155.352L65.9961 155.359Z" fill="white"/>
<path d="M64 287.766L0 287.266L33.4961 221.266L64 287.766Z" fill="white"/>
<path d="M92 355.219L34.9961 355.719L64 287.727L92 355.219Z" fill="white"/>
<path d="M142.496 470.727L92.0002 355.227L192.997 355.229L142.496 470.727Z" fill="white"/>
<path d="M193.031 355.227L220.531 287.727L249.031 354.734L193.031 355.227Z" fill="white"/>
<path d="M220.531 287.758L250.527 219.758L284.027 287.25L220.531 287.758Z" fill="white"/>
<path d="M218.023 155.245L279.024 155.251L250.523 219.759L218.023 155.245Z" fill="white"/>
<path d="M190.501 99.7568L250.499 99.7555L218.002 155.257L190.501 99.7568Z" fill="white"/>
</svg>
