<svg width="545" height="680" viewBox="0 0 545 680" fill="none" xmlns="http://www.w3.org/2000/svg">
<path d="M270.429 2.7175L328.93 113.713L212.927 113.713L270.429 2.7175Z" fill="white"/>
<path d="M106.932 113.723L212.928 113.728L162.43 211.234L106.932 113.723Z" fill="white"/>
<path d="M33.2683 211.228L162.464 211.233L97.4648 338.727L33.2683 211.228Z" fill="white"/>
<path d="M97.457 338.664L163.449 467.188L29.9609 467.156L97.457 338.664Z" fill="white"/>
<path d="M163.426 467.164L223.426 582.164L114.926 582.664L163.426 467.164Z" fill="white"/>
<path d="M318.427 582.172L270.423 674.669L223.425 582.164L318.427 582.172Z" fill="white"/>
<path d="M425.426 582.656L318.426 582.164L377.426 466.164L425.426 582.656Z" fill="white"/>
<path d="M511.48 466.672L377.484 466.172L443.98 337.664L511.48 466.672Z" fill="white"/>
<path d="M443.977 337.714L378.977 211.219L509.477 209.719L443.977 337.714Z" fill="white"/>
<path d="M378.977 211.195L328.977 113.695L435.473 113.695L378.977 211.195Z" fill="white"/>
</svg>
